<svg width="29" height="29" viewBox="0 0 29 29" fill="none" xmlns="http://www.w3.org/2000/svg">
<g clip-path="url(#clip0_3_104)">
<path fill-rule="evenodd" clip-rule="evenodd" d="M3.58262 4.64299C3.59441 4.64263 3.60623 4.64246 3.61807 4.64246H24.6725C24.6853 4.64246 24.698 4.64266 24.7107 4.64308C24.9806 4.65174 25.2274 4.75181 25.4211 4.91334C25.4937 4.97378 25.5592 5.04316 25.6157 5.12029C25.7387 5.28764 25.8182 5.48893 25.8376 5.70748C25.841 5.74601 25.8426 5.78458 25.8422 5.82305V19.8485C25.8422 21.7865 24.2711 23.3575 22.3331 23.3575H5.95744C4.01943 23.3575 2.44836 21.7865 2.44836 19.8485V5.81791V5.81216C2.44836 5.79173 2.44889 5.77142 2.44992 5.75125M2.70183 5.08495C2.74393 5.03198 2.79053 4.98274 2.84105 4.93782C2.7907 4.98255 2.74408 5.03174 2.70183 5.08495ZM4.78775 8.63601V19.8485C4.78775 20.4945 5.31144 21.0181 5.95744 21.0181H22.3331C22.9791 21.0181 23.5028 20.4945 23.5028 19.8485V8.63605L14.9724 17.1665C14.5156 17.6233 13.775 17.6233 13.3182 17.1665L4.78775 8.63601Z" fill="#E2E7FF"/>
</g>
<defs>
<clipPath id="clip0_3_104">
<rect width="28.0726" height="28.0726" fill="white" transform="translate(0.145264)"/>
</clipPath>
</defs>
</svg>
