<svg width="29" height="29" viewBox="0 0 29 29" fill="none" xmlns="http://www.w3.org/2000/svg">
<g clip-path="url(#clip0_3_76)">
<path fill-rule="evenodd" clip-rule="evenodd" d="M14.8271 2.64566C14.3703 2.18887 13.6297 2.18887 13.1729 2.64566L4.98545 10.8331L4.98471 10.8339L2.6457 13.1729C2.1889 13.6297 2.1889 14.3703 2.6457 14.8271C3.10249 15.2839 3.8431 15.2839 4.29989 14.8271L4.64248 14.4845V22.1878C4.64248 24.1258 6.21355 25.6969 8.15156 25.6969H19.8485C21.7865 25.6969 23.3575 24.1258 23.3575 22.1878V14.4845L23.7001 14.8271C24.1569 15.2839 24.8975 15.2839 25.3543 14.8271C25.8111 14.3703 25.8111 13.6297 25.3543 13.1729L14.8271 2.64566Z" fill="white"/>
</g>
<defs>
<clipPath id="clip0_3_76">
<rect width="28.0726" height="28.0726" fill="white"/>
</clipPath>
</defs>
</svg>
