<svg width="16" height="16" viewBox="0 0 16 16" fill="none" xmlns="http://www.w3.org/2000/svg">
<g clip-path="url(#clip0_5_1769)">
<path fill-rule="evenodd" clip-rule="evenodd" d="M4.52859 4.52859C4.78894 4.26824 5.21105 4.26824 5.4714 4.52859L7.99999 7.05719L10.5286 4.52859C10.7889 4.26824 11.2111 4.26824 11.4714 4.52859C11.7317 4.78894 11.7317 5.21105 11.4714 5.4714L8.9428 7.99999L11.4714 10.5286C11.7317 10.7889 11.7317 11.2111 11.4714 11.4714C11.2111 11.7317 10.7889 11.7317 10.5286 11.4714L7.99999 8.9428L5.4714 11.4714C5.21105 11.7317 4.78894 11.7317 4.52859 11.4714C4.26824 11.2111 4.26824 10.7889 4.52859 10.5286L7.05719 7.99999L4.52859 5.4714C4.26824 5.21105 4.26824 4.78894 4.52859 4.52859Z" fill="#FF4A6B"/>
</g>
<defs>
<clipPath id="clip0_5_1769">
<rect width="16" height="16" fill="white"/>
</clipPath>
</defs>
</svg>
