<svg width="28" height="28" viewBox="0 0 28 28" fill="none" xmlns="http://www.w3.org/2000/svg">
<g clip-path="url(#clip0_44_1077)">
<path fill-rule="evenodd" clip-rule="evenodd" d="M14 1.16667C12.7113 1.16667 11.6667 2.21134 11.6667 3.5C11.6667 3.61246 11.6746 3.72307 11.69 3.83129C8.30461 4.82777 5.83333 7.95861 5.83333 11.6667V21H4.66667C4.02233 21 3.5 21.5223 3.5 22.1667C3.5 22.811 4.02233 23.3333 4.66667 23.3333H7H21H23.3333C23.9777 23.3333 24.5 22.811 24.5 22.1667C24.5 21.5223 23.9777 21 23.3333 21H22.1667V11.6667C22.1667 7.95862 19.6954 4.82777 16.31 3.83129C16.3254 3.72307 16.3333 3.61246 16.3333 3.5C16.3333 2.21134 15.2887 1.16667 14 1.16667ZM16.3333 25.6667C16.3333 26.311 15.811 26.8333 15.1667 26.8333H12.8333C12.189 26.8333 11.6667 26.311 11.6667 25.6667C11.6667 25.0223 12.189 24.5 12.8333 24.5H15.1667C15.811 24.5 16.3333 25.0223 16.3333 25.6667Z" fill="#E2E7FF"/>
</g>
<defs>
<clipPath id="clip0_44_1077">
<rect width="28" height="28" fill="white"/>
</clipPath>
</defs>
</svg>
